<svg 
 xmlns="http://www.w3.org/2000/svg"
 xmlns:xlink="http://www.w3.org/1999/xlink"
 width="42px" height="42px">
<path fill-rule="evenodd"  fill="rgb(255, 255, 255)"
 d="M21.000,42.000 C9.402,42.000 -0.001,32.598 -0.001,21.000 C-0.001,9.402 9.402,-0.000 21.000,-0.000 C32.592,0.013 41.987,9.408 42.000,21.000 C42.000,32.598 32.598,42.000 21.000,42.000 ZM28.171,14.437 C28.383,14.172 28.499,13.843 28.499,13.504 C28.500,12.675 27.829,12.001 26.999,12.000 L22.499,12.000 L22.499,7.500 C22.499,6.672 21.828,6.000 21.000,6.000 C20.171,6.000 19.500,6.671 19.500,7.500 L19.500,12.000 L15.000,12.000 C14.171,12.000 13.499,12.671 13.499,13.500 C13.499,14.328 14.171,15.000 15.000,15.000 L23.878,15.000 L13.827,27.562 C13.615,27.829 13.499,28.160 13.499,28.501 C13.499,29.329 14.171,30.000 15.000,30.000 L19.500,30.000 L19.500,34.500 C19.500,35.328 20.171,36.000 21.000,36.000 C21.828,36.000 22.499,35.328 22.499,34.500 L22.499,30.000 L26.999,30.000 C27.828,30.000 28.500,29.328 28.500,28.500 C28.500,27.672 27.828,27.000 26.999,27.000 L18.121,27.000 L28.171,14.437 Z"/>
</svg>