<svg 
 xmlns="http://www.w3.org/2000/svg"
 xmlns:xlink="http://www.w3.org/1999/xlink"
 width="17px" height="17px">
<path fill-rule="evenodd"  fill="rgb(65, 63, 187)"
 d="M15.500,16.500 L1.499,16.500 C0.947,16.500 0.499,16.052 0.499,15.500 C0.499,14.948 0.947,14.500 1.499,14.500 L15.500,14.500 C16.052,14.500 16.500,14.948 16.500,15.500 C16.500,16.052 16.052,16.500 15.500,16.500 ZM9.206,12.332 C9.011,12.527 8.756,12.625 8.500,12.625 C8.243,12.625 7.988,12.527 7.793,12.332 L4.249,8.789 C3.859,8.399 3.859,7.765 4.249,7.375 C4.640,6.984 5.273,6.984 5.664,7.375 L7.500,9.211 L7.500,1.500 C7.500,0.948 7.947,0.500 8.500,0.500 C9.052,0.500 9.499,0.948 9.499,1.500 L9.499,9.211 L11.335,7.375 C11.726,6.984 12.359,6.984 12.750,7.375 C13.140,7.765 13.140,8.399 12.750,8.789 L9.206,12.332 Z"/>
</svg>