<svg xmlns="http://www.w3.org/2000/svg" version="1.1" xmlns:xlink="http://www.w3.org/1999/xlink" xmlns:svgjs="http://svgjs.dev/svgjs" width="1440" height="560" preserveAspectRatio="none" viewBox="0 0 1440 560"><g mask="url(&quot;#SvgjsMask1002&quot;)" fill="none"><path d="M0 374.67L10 433.1L20 456.57L30 416.26L40 409.38L50 385.62L60 359.58L70 361.31L80 370.71L90 321.88L100 368.88L110 329.34L120 266.04L130 215.63L140 236.36L150 246.2L160 276.95L170 315.26L180 247.37L190 233.74L200 192L210 131.5L220 90.68L230 95.04L240 91.95L250 92.74L260 23.93L270 38.64L280 47.19L290 38.99L300 54.6L310 30.37L320 66.3L330 116.98L340 143.41L350 80.88L360 98.49L370 30.56L380 53L390 35.66L400 35.42L410 45.06L420 3.85L430 58.99L440 60.48L450 75.65L460 10.2L470 12.48L480 46.01L490 56.43L500 124.53L510 112.42L520 85.87L530 124.33L540 79.5L550 77.99L560 25.68L570 14.93L580 64.32L590 122.03L600 176.44L610 172.81L620 241L630 230.12L640 214.84L650 220.04L660 279.13L670 336.87L680 379.92L690 369.4L700 346.25L710 406.42L720 340.76L730 310.55L740 356.07L750 366.16L760 424.95L770 388.03L780 376.05L790 364.47L800 433.49L810 416.79L820 391.19L830 333.05L840 293.86L850 284.04L860 309.83L870 351.83L880 324.28L890 362.92L900 349.25L910 401.49L920 335.46L930 382.68L940 409.96L950 358.57L960 409.47L970 467.08L980 414.83L990 377.99L1000 324.24L1010 269.45L1020 286.92L1030 220.36L1040 275.67L1050 255.46L1060 278.73L1070 315.75L1080 378.08L1090 329.77L1100 261.43L1110 329.61L1120 319.43L1130 355.3L1140 425.09L1150 380.57L1160 386.7L1170 431.47L1180 413.93L1190 389.19L1200 453.15L1210 424.23L1220 429L1230 477.17L1240 535.96L1250 468.12L1260 400.77L1270 435.59L1280 459.38L1290 445.5L1300 382.23L1310 313.1L1320 363.85L1330 391.56L1340 405.82L1350 461.21L1360 484.94L1370 530.83L1380 470.44L1390 432.88L1400 402.07L1410 418.45L1420 379.59L1430 430.37L1440 454.66" stroke="#224b75" stroke-width="2"></path><path d="M0 374.67L10 433.1L20 456.57L30 416.26L40 409.38L50 385.62L60 359.58L70 361.31L80 370.71L90 321.88L100 368.88L110 329.34L120 266.04L130 215.63L140 236.36L150 246.2L160 276.95L170 315.26L180 247.37L190 233.74L200 192L210 131.5L220 90.68L230 95.04L240 91.95L250 92.74L260 23.93L270 38.64L280 47.19L290 38.99L300 54.6L310 30.37L320 66.3L330 116.98L340 143.41L350 80.88L360 98.49L370 30.56L380 53L390 35.66L400 35.42L410 45.06L420 3.85L430 58.99L440 60.48L450 75.65L460 10.2L470 12.48L480 46.01L490 56.43L500 124.53L510 112.42L520 85.87L530 124.33L540 79.5L550 77.99L560 25.68L570 14.93L580 64.32L590 122.03L600 176.44L610 172.81L620 241L630 230.12L640 214.84L650 220.04L660 279.13L670 336.87L680 379.92L690 369.4L700 346.25L710 406.42L720 340.76L730 310.55L740 356.07L750 366.16L760 424.95L770 388.03L780 376.05L790 364.47L800 433.49L810 416.79L820 391.19L830 333.05L840 293.86L850 284.04L860 309.83L870 351.83L880 324.28L890 362.92L900 349.25L910 401.49L920 335.46L930 382.68L940 409.96L950 358.57L960 409.47L970 467.08L980 414.83L990 377.99L1000 324.24L1010 269.45L1020 286.92L1030 220.36L1040 275.67L1050 255.46L1060 278.73L1070 315.75L1080 378.08L1090 329.77L1100 261.43L1110 329.61L1120 319.43L1130 355.3L1140 425.09L1150 380.57L1160 386.7L1170 431.47L1180 413.93L1190 389.19L1200 453.15L1210 424.23L1220 429L1230 477.17L1240 535.96L1250 468.12L1260 400.77L1270 435.59L1280 459.38L1290 445.5L1300 382.23L1310 313.1L1320 363.85L1330 391.56L1340 405.82L1350 461.21L1360 484.94L1370 530.83L1380 470.44L1390 432.88L1400 402.07L1410 418.45L1420 379.59L1430 430.37L1440 454.66L1440 560L0 560z" fill="url(&quot;#SvgjsLinearGradient1003&quot;)"></path></g><defs><mask id="SvgjsMask1002"><rect width="1440" height="560" fill="#ffffff"></rect></mask><linearGradient x1="50%" y1="0%" x2="50%" y2="100%" id="SvgjsLinearGradient1003"><stop stop-opacity="0.65" stop-color="#224b75" offset="0"></stop><stop stop-opacity="0" stop-color="#508dcc" offset="0.8"></stop></linearGradient></defs></svg>